<?xml version="1.0" standalone="no"?><!DOCTYPE svg PUBLIC "-//W3C//DTD SVG 1.1//EN" "http://www.w3.org/Graphics/SVG/1.1/DTD/svg11.dtd"><svg t="1594450293249" class="icon" viewBox="0 0 1024 1024" version="1.1" xmlns="http://www.w3.org/2000/svg" p-id="4155" xmlns:xlink="http://www.w3.org/1999/xlink" width="800" height="800"><defs><style type="text/css"></style></defs><path d="M163.328 117.248H860.16v789.504H163.328V117.248z" fill="#FFFFFF" p-id="4156"></path><path d="M832 960h-640c-47.104 0-85.504-38.4-85.504-85.504V149.504c0-47.104 38.4-85.504 85.504-85.504h640c47.104 0 85.504 38.4 85.504 85.504v725.504c0 46.592-38.4 84.992-85.504 84.992zM192 120.832c-15.872 0-28.672 12.8-28.672 28.672v725.504c0 15.872 12.8 28.672 28.672 28.672h640c15.872 0 28.672-12.8 28.672-28.672V149.504c0-15.872-12.8-28.672-28.672-28.672h-640z" fill="#369CF1" p-id="4157"></path><path d="M219.136 177.664h583.168v668.672H219.136V177.664z" fill="#B1DBF2" p-id="4158"></path><path d="M483.328 640c0 15.872-12.8 28.672-28.672 28.672H341.504c-15.872 0-28.672-12.8-28.672-28.672 0-15.872 12.8-28.672 28.672-28.672h113.664c15.36 0 28.16 12.8 28.16 28.672z m213.504 113.664c0 15.872-12.8 28.672-28.672 28.672H341.504c-15.872 0-28.672-12.8-28.672-28.672 0-15.872 12.8-28.672 28.672-28.672h327.168c15.36 0.512 28.16 13.312 28.16 28.672z m10.24-217.6l-173.568-281.088c-5.12-8.704-14.848-13.312-24.064-13.312-9.728 0-19.456 5.632-24.064 14.336L317.44 540.672c-7.68 13.312-3.584 31.232 9.728 38.912 4.096 3.072 9.216 4.096 14.336 4.096 9.728 0 19.456-5.12 24.064-14.336l47.104-78.848h199.168l47.104 75.264c8.704 13.312 25.6 17.92 38.912 9.216 13.312-7.68 17.408-25.088 9.216-38.912z m-261.12-102.4l64-109.056 67.072 108.544c-0.512 0.512-131.072 0.512-131.072 0.512z m250.88-177.664c0-15.872-12.8-28.672-28.672-28.672-15.872 0-28.16 12.8-28.16 28.672-15.872 0-28.672 12.8-28.672 28.672s12.8 28.672 28.672 28.672c0 15.872 12.8 28.672 28.672 28.672 15.872 0 28.672-12.8 28.672-28.672 15.872 0 28.672-12.8 28.672-28.672s-13.312-28.672-29.184-28.672z" fill="#369CF1" p-id="4159"></path></svg>