<?xml version="1.0" standalone="no"?><!DOCTYPE svg PUBLIC "-//W3C//DTD SVG 1.1//EN" "http://www.w3.org/Graphics/SVG/1.1/DTD/svg11.dtd"><svg t="1594450303312" class="icon" viewBox="0 0 1067 1024" version="1.1" xmlns="http://www.w3.org/2000/svg" p-id="4278" xmlns:xlink="http://www.w3.org/1999/xlink" width="833.59375" height="800"><defs><style type="text/css"></style></defs><path d="M915.041262 114.469016H228.938155c-30.57247 0-59.722965 12.08679-81.052595 33.416421S114.469139 198.365562 114.469139 228.938032v535.373719c-30.57247 0-59.722965-12.08679-81.052595-33.41642S0.000123 680.415206 0.000123 649.842736V114.469016c0-30.57247 12.08679-59.722965 33.416421-81.052595S83.896669 0 114.469139 0h685.39212c30.57247 0 59.722965 12.08679 81.052595 33.416421 22.040618 22.040618 34.127408 51.191113 34.127408 81.052595z m0 0" fill="#F6C8F4" p-id="4279"></path><path d="M757.912986 917.174102l-103.804201 96.694324c-14.930741 13.508766-36.971359 13.508766-51.9021 0L499.113472 917.174102h-270.175317c-41.948273 0-76.075681-34.127408-76.075681-76.786669v-611.449401c0-41.948273 34.127408-76.075681 76.075681-76.075682h762.178788c19.907655 0 39.81531 7.820864 54.035064 22.751606 14.219754 14.219754 22.040618 33.416421 22.040618 54.035063v611.449401c0 41.948273-34.127408 76.075681-76.075682 76.075682h-233.203957z m-433.702482-477.783718h570.923103c20.618643-0.710988 36.260371-17.774692 36.260372-38.393335 0-20.618643-16.352717-37.682347-36.260372-38.393334H324.210504c-20.618643 0.710988-36.260371 17.774692-36.260372 38.393334 0 20.618643 16.352717 37.682347 36.260372 38.393335z m0 191.255684h400.286061c20.618643-0.710988 36.260371-17.774692 36.260371-38.393334 0-20.618643-16.352717-37.682347-36.260371-38.393335H324.210504c-20.618643 0.710988-36.260371 17.774692-36.260372 38.393335 0 20.618643 16.352717 36.971359 36.260372 38.393334z m0 0" fill="#AD7FFC" p-id="4280"></path></svg>