<?xml version="1.0" standalone="no"?><!DOCTYPE svg PUBLIC "-//W3C//DTD SVG 1.1//EN" "http://www.w3.org/Graphics/SVG/1.1/DTD/svg11.dtd"><svg t="1594450327391" class="icon" viewBox="0 0 1024 1024" version="1.1" xmlns="http://www.w3.org/2000/svg" p-id="4399" xmlns:xlink="http://www.w3.org/1999/xlink" width="800" height="800"><defs><style type="text/css"></style></defs><path d="M0 0m153.6 0l716.8 0q153.6 0 153.6 153.6l0 716.8q0 153.6-153.6 153.6l-716.8 0q-153.6 0-153.6-153.6l0-716.8q0-153.6 153.6-153.6Z" fill="#F4589A" p-id="4400"></path><path d="M798.72 204.8a20.48 20.48 0 0 1 20.48 20.48v532.48c0 33.93024-27.50976 61.44-61.44 61.44H266.24c-33.93024 0-61.44-27.50976-61.44-61.44V225.28a20.48 20.48 0 0 1 20.48-20.48h573.44z m-404.48 332.8c-33.93024 0-61.44 27.50976-61.44 61.44s27.50976 61.44 61.44 61.44 61.44-27.50976 61.44-61.44-27.50976-61.44-61.44-61.44z m286.72 40.96h-163.84a20.48 20.48 0 1 0 0 40.96h163.84a20.48 20.48 0 1 0 0-40.96z m0-179.2h-163.84a20.48 20.48 0 1 0 0 40.96h163.84a20.48 20.48 0 1 0 0-40.96z m-327.6288 1.87392a20.48 20.48 0 1 0-30.8224 26.97216l35.84 40.96a20.48 20.48 0 0 0 28.89728 1.92512l81.92-71.68a20.48 20.48 0 1 0-26.97216-30.8224l-66.5088 58.19392-22.35392-25.5488zM363.52 599.04a33.1776 33.1776 0 0 0 30.72 30.72 32.8704 32.8704 0 0 0 30.72-30.72 30.72 30.72 0 0 0-30.72-30.72 33.1776 33.1776 0 0 0-30.72 30.72z" fill="#FFFFFF" p-id="4401"></path></svg>