<?xml version="1.0" standalone="no"?><!DOCTYPE svg PUBLIC "-//W3C//DTD SVG 1.1//EN" "http://www.w3.org/Graphics/SVG/1.1/DTD/svg11.dtd"><svg t="1557798459375" class="icon" style="" viewBox="0 0 1024 1024" version="1.1" xmlns="http://www.w3.org/2000/svg" p-id="3446" xmlns:xlink="http://www.w3.org/1999/xlink" width="200" height="200"><defs><style type="text/css"></style></defs><path d="M849 509.3L456.27 904.74a32 32 0 0 0 45.41 45.1L917 531.7a32 32 0 0 0-0.16-45.25L501.53 74a32 32 0 1 0-45.1 45.41z" p-id="3447" fill="#8a8a8a"></path><path d="M499.78 509.3L107.05 904.74a32 32 0 0 0 45.41 45.1L567.74 531.7a32 32 0 0 0-0.16-45.25L152.31 74a32 32 0 0 0-45.1 45.41z" p-id="3448" fill="#8a8a8a"></path></svg>